<?xml version="1.0" encoding="UTF-8"?>
<svg id="_圖層_1" data-name="圖層 1" xmlns="http://www.w3.org/2000/svg" viewBox="0 0 1024 1024">
  <defs>
    <style>
      .cls-1 {
        fill: #fff;
      }

      .cls-2 {
        fill: #254ea1;
      }

      .cls-3 {
        fill: #953091;
      }
    </style>
  </defs>
  <rect class="cls-1" x="12" y="12" width="1000" height="1000" rx="180" ry="180"/>
  <g id="layer1">
    <g id="g3016">
      <path id="path9" class="cls-3" d="M875.28,486.72v14.98c-3.4,29.96-15.28,58.04-33.95,84.25h0c-49.23,67.4-145.99,112.34-256.33,114.21,117.13-22.47,202.01-97.36,202.01-187.23,0-106.72-122.22-194.72-271.61-194.72-15.28,0-28.86,0-44.14,1.87l-8.49-29.96-25.46-88c185.03,22.47,336.12,91.74,402.32,181.61l1.7,1.87c18.67,26.21,30.56,52.42,33.95,82.38v11.23"/>
      <path id="path11" class="cls-2" d="M472.96,801.27c35.65,9.36,74.69,14.98,115.43,20.59l-67.9-232.16-47.53-16.85v131.06c-130.71-14.98-229.17-95.49-229.17-192.84,0-58.04,35.65-110.46,91.67-146.04,30.56-18.72,67.9-33.7,108.64-41.19h0c-112.04,0-208.8,44.94-259.73,112.34l-1.7,1.87c-18.67,26.21-30.56,56.17-33.95,86.12v29.96c3.4,29.96,15.28,58.04,33.95,86.12l1.7,1.87c50.93,69.27,156.18,127.31,288.59,159.14M761.54,486.72h-49.23c-39.04,41.19-86.58,71.15-139.2,89.87l52.62,18.72c54.32-24.34,100.16-61.78,135.81-108.59h0ZM722.5,434.3h-64.51c-54.32,54.3-125.62,91.74-203.71,101.1l71.3,24.34c79.79-18.72,149.39-63.66,196.92-125.44ZM669.87,381.88h-67.9c-64.51,65.53-151.08,104.85-246.15,104.85-18.67,0-35.65-1.87-54.32-3.74l118.83,41.19c101.85-11.23,191.82-63.66,249.54-142.29Z"/>
    </g>
  </g>
</svg>