<?xml version="1.0" encoding="UTF-8"?>
<svg id="_圖層_1" data-name="圖層 1" xmlns="http://www.w3.org/2000/svg" viewBox="0 0 1024 1024">
  <defs>
    <style>
      .cls-1, .cls-2, .cls-3, .cls-4 {
        stroke: #c03634;
        stroke-miterlimit: 10;
      }

      .cls-1, .cls-2, .cls-5 {
        fill: #fff;
      }

      .cls-1, .cls-3, .cls-4 {
        stroke-width: 10px;
      }

      .cls-2 {
        stroke-width: 5px;
      }

      .cls-3, .cls-6 {
        fill: #c03634;
      }

      .cls-4 {
        fill: none;
      }
    </style>
  </defs>
  <rect class="cls-5" x="12" y="12" width="1000" height="1000" rx="180" ry="180"/>
  <g>
    <path class="cls-3" d="M744.51,748.92v117.53c0,11.35-14.46,20.55-32.29,20.55h-12.92c-17.84,0-32.29-9.2-32.29-20.55v-117.53"/>
    <path class="cls-3" d="M356.99,748.92v117.53c0,11.35-14.46,20.55-32.29,20.55h-12.92c-17.84,0-32.29-9.2-32.29-20.55v-117.53"/>
    <g>
      <path class="cls-6" d="M834.93,220.5v509.9c0,36.14-21.12,65.45-47.19,65.45l-551.71.15c-26.42,0-46.97-29.45-46.97-65.59V202.45c0-36.14,21.12-65.45,47.19-65.45h551.49c26.07,0,47.19,29.3,47.19,65.45v18.06h0Z"/>
      <path class="cls-4" d="M834.93,730.4V202.45c0-36.14-21.12-65.45-47.19-65.45H236.25c-26.07,0-47.19,29.3-47.19,65.45v527.96c0,36.14,20.55,65.59,46.97,65.59l551.71-.15c26.07,0,47.19-29.3,47.19-65.45h0Z"/>
    </g>
    <path class="cls-1" d="M260.11,293.28v220.92c0,34.32,26.02,62.13,58.13,62.13h400.44c32.1,0,58.13-27.82,58.13-62.13v-220.92c0-34.32-26.02-62.13-58.13-62.13h-400.44c-32.1,0-58.13,27.82-58.13,62.13h0Z"/>
    <path class="cls-1" d="M253.65,177.79v12.55c0,13.86,11.57,25.1,25.83,25.1h465.02c14.27,0,25.83-11.24,25.83-25.1v-12.55c0-13.86-11.57-25.1-25.83-25.1h-465.02c-14.27,0-25.83,11.24-25.83,25.1h0Z"/>
    <ellipse class="cls-5" cx="318.24" cy="654.78" rx="38.75" ry="37.66"/>
    <ellipse class="cls-2" cx="705.75" cy="654.78" rx="36.17" ry="35.15"/>
  </g>
</svg>