<?xml version="1.0" encoding="UTF-8"?>
<svg id="_圖層_1" data-name="圖層 1" xmlns="http://www.w3.org/2000/svg" viewBox="0 0 1024 1024">
  <defs>
    <style>
      .cls-1 {
        fill: #008659;
      }

      .cls-2 {
        fill: #fff;
      }
    </style>
  </defs>
  <rect class="cls-1" x="12" y="12" width="1000" height="1000" rx="180" ry="180"/>
  <path class="cls-2" d="M340.2,522c0-123.24,85.15-197.6,201.48-197.6,61.16,0,101.34,22.88,126.52,46.8l-29.98,29.64c-22.19-20.28-50.97-34.32-94.74-34.32-88.75,0-146.31,58.76-146.31,153.92s52.77,156.52,146.91,156.52c31.18,0,61.76-8.32,79.15-22.36v-99.84h-93.54v-40.04h144.51v160.16c-28.18,25.48-76.75,44.2-135.52,44.2-115.73,0-198.48-73.32-198.48-197.08Z"/>
</svg>