<?xml version="1.0" encoding="UTF-8"?>
<svg id="_圖層_1" data-name="圖層 1" xmlns="http://www.w3.org/2000/svg" viewBox="0 0 1024 1024">
  <defs>
    <style>
      .cls-1 {
        fill: #006ab1;
      }

      .cls-2 {
        fill: #fff;
      }

      .cls-3 {
        fill: #77bc1f;
      }

      .cls-4 {
        fill: #004c7a;
      }
    </style>
  </defs>
  <rect class="cls-2" x="12" y="12" width="1000" height="1000" rx="180" ry="180"/>
  <g id="layer1">
    <polygon id="polygon3457" class="cls-3" points="317.4 535.74 365.48 535.74 317.4 583.87 317.4 535.74"/>
    <path id="path3459" class="cls-4" d="M341.42,548.81h-13.1s-6.17,5.93-6.17,12.87,6.17,12.88,6.17,12.88h13.1s6.17-5.93,6.17-12.88-6.17-12.87-6.17-12.87"/>
    <path id="path3461" class="cls-2" d="M357.29,543.84l1.08-1.04-40.97-6.88v1.21l15.25,2.58-3.2,5.14,3.32,1.96-.03.74h-5.25s-6.18,5.91-6.18,12.87,6.18,12.88,6.18,12.88h13.09s6.19-5.94,6.19-12.88-6.19-12.87-6.19-12.87h-5.57l-.06-.66-3.98-2.04,3.74-4.82,22.58,3.8Z"/>
    <path id="path3463" class="cls-1" d="M339.5,549.14h-10.99s-5.2,5.33-5.2,11.58h21.38c0-6.25-5.19-11.58-5.19-11.58"/>
    <g id="g925">
      <path id="path902" class="cls-3" d="M84.5,84.5h855L84.5,939.5V84.5Z"/>
      <path id="path904" class="cls-4" d="M512,316.57h-232.07s-109.93,103.82-109.93,232.07,109.93,225.97,109.93,225.97h232.07s109.93-103.82,109.93-225.97c0-128.25-109.93-232.07-109.93-232.07h0Z"/>
      <path id="path906" class="cls-2" d="M792.93,224.96l24.44-18.32L84.51,84.5v24.44l268.71,42.75-54.96,91.61,61.07,36.64v12.2h-97.72s-109.93,109.93-109.93,232.07,109.93,232.07,109.93,232.07h238.18s109.93-109.93,109.93-232.07-109.93-232.07-109.93-232.07h-103.82v-12.2l-73.29-36.64,67.18-85.5,403.06,67.17Z"/>
      <path id="path908" class="cls-1" d="M475.36,322.68h-195.43s-91.6,91.61-91.6,207.64h384.75c0-116.03-97.72-207.64-97.72-207.64h0Z"/>
    </g>
  </g>
</svg>