<?xml version="1.0" encoding="UTF-8"?><svg id="_圖層_1" xmlns="http://www.w3.org/2000/svg" viewBox="0 0 45 45"><path d="M10,0h35v45H0V10C0,4.48,4.48,0,10,0Z" fill="#fff"/><path d="M10.83,35.83c-7.46.21-11.13-9.2-5.9-14.27,4.62-4.66,12.91-2.19,14.06,4.27h1.08l-3-8.33h-1.92c-.55,0-1-.45-1-1v-1.33c0-.55.45-1,1-1h6.33c.55,0,1,.45,1,1v1.33c0,.55-.45,1-1,1h0c-.41,0-.69.4-.56.79l.07.21c.14.4.52.67.94.67h5.86c.69,0,1.18-.69.94-1.34l-1.69-4.67c-.14-.4-.52-.66-.94-.66h-2.63c-.55,0-1-.45-1-1v-1.33c0-.55.45-1,1-1h3.33c.72,0,1.37.19,1.94.58s.98.92,1.23,1.58l2.58,7.05c.15.42.56.67,1.01.65,7.7-.23,11.93,8.56,6.5,14.34-4.48,4.76-12.9,2.21-14.08-4.21h-7c-.73,3.83-4.19,6.75-8.17,6.67ZM10.83,32.5c2.18.04,3.99-1.35,4.67-3.33h-3.67c-.55,0-1-.45-1-1v-1.33c0-.55.45-1,1-1h3.67c-.96-3.46-5.82-4.45-8.23-1.9-3.11,2.97-.85,8.73,3.56,8.56ZM24.01,25.83h1.6c.23,0,.43-.16.48-.38.2-.79.47-1.52.87-2.2.2-.33-.03-.75-.42-.75h-3.41c-.35,0-.59.35-.47.68l.87,2.33c.07.2.26.32.47.32ZM34.16,32.5c6.72-.09,6.57-10.15-.17-10l1.31,3.47c.2.52-.07,1.1-.59,1.29l-1.27.47c-.52.19-1.1-.08-1.29-.6l-1.24-3.47c-3.52,2.83-1.35,9,3.25,8.83Z" fill="#dfe24d"/></svg>