<?xml version="1.0" encoding="UTF-8"?><svg id="_圖層_1" xmlns="http://www.w3.org/2000/svg" viewBox="0 0 45 45"><rect x="0" y="0" width="45" height="45" rx="10" ry="10" fill="#0070bd"/><path d="M9.17,14.36h5.8c3.95,0,6.73,1.17,6.73,4.19,0,1.78-1.02,3.21-2.86,3.72v.12c2.43.4,3.98,1.73,3.98,4.03,0,3.44-3.05,5.1-7.43,5.1h-6.23V14.36ZM14.54,21.64c3.37,0,4.73-1.05,4.73-2.81,0-2.01-1.55-2.76-4.62-2.76h-3.02v5.57h2.91ZM15.05,29.78c3.37,0,5.34-1.05,5.34-3.37,0-2.13-1.9-3.09-5.34-3.09h-3.42v6.46h3.42Z" fill="#fff"/><path d="M26.72,14.36h2.46v15.31h8.58v1.85h-11.04V14.36Z" fill="#fff"/></svg>