<?xml version="1.0" encoding="UTF-8"?><svg id="_圖層_1" xmlns="http://www.w3.org/2000/svg" viewBox="0 0 45 45"><rect x="0" y="0" width="45" height="45" rx="10" ry="10" fill="#c48c31"/><path d="M7.94,14.36h5.8c3.95,0,6.73,1.17,6.73,4.19,0,1.78-1.02,3.21-2.86,3.72v.12c2.43.4,3.98,1.73,3.98,4.03,0,3.44-3.05,5.1-7.43,5.1h-6.23V14.36ZM13.31,21.64c3.37,0,4.73-1.05,4.73-2.81,0-2.01-1.55-2.76-4.62-2.76h-3.02v5.57h2.91ZM13.82,29.78c3.37,0,5.34-1.05,5.34-3.37,0-2.13-1.9-3.09-5.34-3.09h-3.42v6.46h3.42Z" fill="#fff"/><path d="M31.48,24.24h-3.53v7.28h-2.46V14.36h6.12c3.98,0,6.84,1.24,6.84,4.8,0,2.69-1.76,4.28-4.41,4.85l4.97,7.51h-2.78l-4.76-7.28ZM31.24,22.5c3.07,0,4.76-1.1,4.76-3.35s-1.68-3.04-4.76-3.04h-3.29v6.39h3.29Z" fill="#fff"/></svg>