<?xml version="1.0" encoding="UTF-8"?><svg id="_圖層_1" xmlns="http://www.w3.org/2000/svg" viewBox="0 0 1024 1024"><rect x="12" y="12" width="1000" height="1000" rx="180" ry="180" fill="#c48c31"/><path d="M188.48,331.16h128.82c87.86,0,149.59,26,149.59,93.08,0,39.52-22.56,71.24-63.52,82.68v2.6c54.02,8.84,88.45,38.48,88.45,89.44,0,76.44-67.67,113.36-165.03,113.36h-138.31v-381.16ZM307.79,492.88c74.8,0,105.07-23.4,105.07-62.4,0-44.72-34.43-61.36-102.7-61.36h-67.08v123.76h64.71ZM319.07,673.84c74.8,0,118.73-23.4,118.73-74.88,0-47.32-42.15-68.64-118.73-68.64h-75.98v143.52h75.98Z" fill="#fff"/><path d="M711.46,550.6h-78.36v161.72h-54.61v-381.16h135.94c88.45,0,151.97,27.56,151.97,106.6,0,59.8-39.18,95.16-97.95,107.64l110.42,166.92h-61.74l-105.67-161.72ZM706.12,512.12c68.27,0,105.67-24.44,105.67-74.36s-37.4-67.6-105.67-67.6h-73.02v141.96h73.02Z" fill="#fff"/></svg>