<?xml version="1.0" encoding="UTF-8"?><svg id="_圖層_1" xmlns="http://www.w3.org/2000/svg" viewBox="0 0 1024 1024"><rect x="12" y="12" width="1000" height="1000" rx="180" ry="180" fill="#fff"/><path d="M742.45,748.92v117.53c0,11.35-14.46,20.55-32.29,20.55h-12.92c-17.84,0-32.29-9.2-32.29-20.55v-117.53" fill="#c03634" stroke="#c03634" stroke-miterlimit="10" stroke-width="10"/><path d="M354.93,748.92v117.53c0,11.35-14.46,20.55-32.29,20.55h-12.92c-17.84,0-32.29-9.2-32.29-20.55v-117.53" fill="#c03634" stroke="#c03634" stroke-miterlimit="10" stroke-width="10"/><path d="M832.87,220.5v509.9c0,36.14-21.12,65.45-47.19,65.45l-551.71.15c-26.42,0-46.97-29.45-46.97-65.59V202.45c0-36.14,21.12-65.45,47.19-65.45h551.49c26.07,0,47.19,29.3,47.19,65.45v18.06Z" fill="#c03634"/><path d="M832.87,730.4V202.45c0-36.14-21.12-65.45-47.19-65.45H234.19c-26.07,0-47.19,29.3-47.19,65.45v527.96c0,36.14,20.55,65.59,46.97,65.59l551.71-.15c26.07,0,47.19-29.3,47.19-65.45Z" fill="none" stroke="#c03634" stroke-miterlimit="10" stroke-width="10"/><path d="M258.05,293.28v220.92c0,34.32,26.02,62.13,58.13,62.13h400.44c32.1,0,58.13-27.82,58.13-62.13v-220.92c0-34.32-26.02-62.13-58.13-62.13h-400.44c-32.1,0-58.13,27.82-58.13,62.13Z" fill="#fff" stroke="#c03634" stroke-miterlimit="10" stroke-width="10"/><path d="M251.59,177.79v12.55c0,13.86,11.57,25.1,25.83,25.1h465.02c14.27,0,25.83-11.24,25.83-25.1v-12.55c0-13.86-11.57-25.1-25.83-25.1h-465.02c-14.27,0-25.83,11.24-25.83,25.1Z" fill="#fff" stroke="#c03634" stroke-miterlimit="10" stroke-width="10"/><ellipse cx="316.17" cy="654.78" rx="38.75" ry="37.66" fill="#fff"/><ellipse cx="703.69" cy="654.78" rx="36.17" ry="35.15" fill="#fff" stroke="#c03634" stroke-miterlimit="10" stroke-width="5"/></svg>