<?xml version="1.0" encoding="UTF-8"?><svg id="_圖層_1" xmlns="http://www.w3.org/2000/svg" viewBox="0 0 45 45"><rect y="0" width="45" height="45" rx="10" ry="10" fill="#fff"/><path d="M34.02,34.24v5.82c0,.56-.72,1.02-1.6,1.02h-.64c-.88,0-1.6-.46-1.6-1.02v-5.82" fill="#c03634" stroke="#c03634" stroke-miterlimit="10" stroke-width="2"/><path d="M14.82,34.24v5.82c0,.56-.72,1.02-1.6,1.02h-.64c-.88,0-1.6-.46-1.6-1.02v-5.82" fill="#c03634" stroke="#c03634" stroke-miterlimit="10" stroke-width="2"/><path d="M38.5,8.06v25.26c0,1.79-1.05,3.24-2.34,3.24H8.83c-1.31,0-2.33-1.45-2.33-3.24V7.16c0-1.79,1.05-3.24,2.34-3.24h27.32c1.29,0,2.34,1.45,2.34,3.24v.89Z" fill="#c03634"/><path d="M38.5,33.32V7.16c0-1.79-1.05-3.24-2.34-3.24H8.84c-1.29,0-2.34,1.45-2.34,3.24v26.16c0,1.79,1.02,3.25,2.33,3.25h27.34c1.29,0,2.34-1.46,2.34-3.25Z" fill="none" stroke="#c03634" stroke-miterlimit="10" stroke-width="3"/><path d="M10.02,11.66v10.95c0,1.7,1.29,3.08,2.88,3.08h19.84c1.59,0,2.88-1.38,2.88-3.08v-10.95c0-1.7-1.29-3.08-2.88-3.08H12.9c-1.59,0-2.88,1.38-2.88,3.08Z" fill="#fff" stroke="#c03634" stroke-miterlimit="10"/><path d="M10.02,6v.62c0,.69.57,1.24,1.28,1.24h23.04c.71,0,1.28-.56,1.28-1.24v-.62c0-.69-.57-1.24-1.28-1.24H11.3c-.71,0-1.28.56-1.28,1.24Z" fill="#fff" stroke="#c03634" stroke-miterlimit="10"/><ellipse cx="12.9" cy="29.57" rx="1.92" ry="1.87" fill="#fff" stroke="#c03634" stroke-miterlimit="10"/><ellipse cx="32.1" cy="29.57" rx="1.79" ry="1.74" fill="#fff" stroke="#c03634" stroke-miterlimit="10"/></svg>