<?xml version="1.0" encoding="UTF-8"?><svg id="_圖層_1" xmlns="http://www.w3.org/2000/svg" viewBox="0 0 45 45"><path d="M10,0h25c5.52,0,10,4.48,10,10v25c0,5.52-4.48,10-10,10H10c-5.52,0-10-4.48-10-10V10C0,4.48,4.48,0,10,0Z" fill="#008659"/><path d="M14.77,22.95c0-5.55,3.83-8.89,9.06-8.89,2.75,0,4.56,1.03,5.69,2.11l-1.35,1.33c-1-.91-2.29-1.54-4.26-1.54-3.99,0-6.58,2.64-6.58,6.93s2.37,7.04,6.61,7.04c1.4,0,2.78-.37,3.56-1.01v-4.49h-4.21v-1.8h6.5v7.21c-1.27,1.15-3.45,1.99-6.1,1.99-5.21,0-8.93-3.3-8.93-8.87Z" fill="#fff"/></svg>