<?xml version="1.0" encoding="UTF-8"?>
<svg id="_圖層_1" xmlns="http://www.w3.org/2000/svg" version="1.1" viewBox="0 0 45 45">
  <!-- Generator: Adobe Illustrator 30.3.0, SVG Export Plug-In . SVG Version: 2.1.3 Build 182)  -->
  <defs>
    <style>
      .st0 {
        fill: #c03634;
      }
    </style>
  </defs>
  <path class="st0" d="M22.5,30.5c2.9-2.4,5.2-4.7,6.7-6.9,1.5-2.2,2.3-4.3,2.3-6.2s-.8-4.9-2.5-6.6-3.8-2.6-6.4-2.6-4.8.9-6.4,2.6-2.5,3.9-2.5,6.6.8,4,2.3,6.2,3.7,4.5,6.7,6.9ZM22.5,35c-4.2-3.1-7.3-6.1-9.4-9-2.1-2.9-3.1-5.8-3.1-8.6s1.2-6.8,3.5-9.2,5.3-3.6,9-3.6,6.7,1.2,9,3.6,3.5,5.5,3.5,9.2-1,5.7-3.1,8.6-5.2,5.9-9.4,9ZM10,40.4v-3.6h25v3.6H10Z"/>
</svg>